<?xml version="1.0" standalone="no"?>
<svg viewBox="0 0 200 200" xmlns="http://www.w3.org/2000/svg">
  <path fill="#FF0066" d="M44.5,-70.7C57.3,-61,67.1,-48,75,-33.5C82.9,-18.9,88.9,-2.6,88,13.6C87.1,29.8,79.4,46,68,58.6C56.5,71.2,41.4,80.2,25.7,82.6C10,84.9,-6.2,80.6,-22.5,76C-38.8,71.5,-55.2,66.7,-67.5,56.3C-79.8,46,-88.1,29.9,-88.5,13.9C-88.9,-2.1,-81.5,-18,-72.9,-31.8C-64.3,-45.7,-54.4,-57.5,-42,-67.4C-29.7,-77.3,-14.8,-85.3,0.5,-86.1C15.8,-86.8,31.7,-80.4,44.5,-70.7Z" transform="translate(100 100)" />
</svg>
