<svg data-v-423bf9ae="" xmlns="http://www.w3.org/2000/svg" viewBox="0 0 510 91" class="iconLeft"><!----><!----><!----><g data-v-423bf9ae="" id="a7b2df97-8b41-4b76-a96e-2bd051a0a2aa" fill="white" transform="matrix(4.291845341318184,0,0,4.291845341318184,109.79721937137336,3.068225931310117)"><path d="M6.73 13.55L8.81 13.55L5.18 3.30L3.65 3.30L0.03 13.55L1.65 13.55L2.70 10.61L5.73 10.61ZM5.26 9.24L3.18 9.24C3.54 8.08 3.88 6.93 4.20 5.74C4.52 6.92 4.89 8.08 5.26 9.24ZM20.62 12.68L19.74 11.35C19.05 12.01 18.33 12.40 17.35 12.40C15.30 12.40 14.42 10.02 14.42 8.32C14.42 6.43 15.13 4.47 17.32 4.47C18.09 4.47 19.04 4.80 19.56 5.39L20.57 4.10C19.78 3.40 18.26 3.11 17.25 3.11C14.18 3.11 12.33 5.39 12.33 8.36C12.33 11.44 13.99 13.72 17.23 13.72C18.59 13.72 19.50 13.38 20.62 12.68ZM27.93 10.07C27.93 8.05 26.66 6.41 24.54 6.41C22.46 6.41 21.15 8.06 21.15 10.07C21.15 12.08 22.43 13.72 24.54 13.72C26.66 13.72 27.93 12.08 27.93 10.07ZM26.08 10.08C26.08 11.10 25.86 12.60 24.54 12.60C23.27 12.60 23.00 11.06 23.00 10.08C23.00 9.10 23.27 7.56 24.54 7.56C25.86 7.56 26.08 9.06 26.08 10.08ZM33.81 13.68L35.50 13.51C35.24 13.02 35.15 12.10 35.15 11.56L35.15 2.80L33.26 2.80L33.47 3.56L33.47 6.02C33.47 6.45 33.47 6.50 33.49 6.87C33.11 6.57 32.42 6.43 31.93 6.43C29.78 6.43 28.69 8.11 28.69 10.12C28.69 11.91 29.68 13.72 31.67 13.72C32.34 13.72 33.21 13.41 33.60 12.84C33.66 13.15 33.71 13.41 33.81 13.68ZM33.47 9.46L33.47 11.75C33.19 12.17 32.65 12.47 32.14 12.47C30.90 12.47 30.52 11.06 30.52 10.05C30.52 9.09 30.86 7.62 32.09 7.62C33.15 7.62 33.47 8.54 33.47 9.46ZM38.93 4.06C38.93 3.47 38.46 3.00 37.87 3.00C37.28 3.00 36.79 3.47 36.79 4.06C36.79 4.65 37.28 5.14 37.87 5.14C38.46 5.14 38.93 4.65 38.93 4.06ZM37.02 13.55L38.70 13.55L38.70 6.59L36.86 6.59C36.88 6.66 37.02 7.32 37.02 7.35ZM44.73 13.55L46.42 13.55L46.42 8.85C46.42 7.39 45.96 6.40 44.35 6.40C43.58 6.40 42.78 6.83 42.22 7.34C42.18 7.04 42.11 6.72 41.99 6.44L40.22 6.65C40.56 7.06 40.66 8.08 40.66 8.57L40.66 13.55L42.34 13.55L42.34 8.50C42.63 8.18 43.43 7.73 43.85 7.73C44.66 7.73 44.73 8.37 44.73 9.02ZM51.39 12.28L50.75 12.28C50.22 12.28 49.60 12.24 49.60 11.83C49.60 11.47 49.92 11.20 50.26 11.20C51.69 11.20 52.95 10.25 52.95 8.78C52.95 8.30 52.79 7.91 52.50 7.53C52.60 7.56 52.72 7.60 52.82 7.60L54.01 7.60L54.32 6.44C53.51 6.51 52.65 6.59 51.83 6.59C51.32 6.59 50.92 6.38 50.33 6.38C48.92 6.38 47.68 7.34 47.68 8.79C47.68 9.70 48.16 10.42 48.93 10.85C48.40 11.75 47.87 11.96 47.87 12.22C47.87 12.66 48.19 13.09 48.51 13.17L48.51 13.23C47.85 13.52 47.28 14.20 47.28 15.02C47.28 16.46 48.96 16.77 50.08 16.77C51.81 16.77 53.90 15.89 53.90 13.87C53.90 12.38 52.56 12.28 51.39 12.28ZM50.32 10.22C49.76 10.22 49.43 9.60 49.43 8.83C49.43 8.06 49.76 7.43 50.32 7.43C50.88 7.43 51.21 8.06 51.21 8.83C51.21 9.60 50.88 10.22 50.32 10.22ZM49.67 13.55L50.95 13.55C51.45 13.55 52.30 13.58 52.30 14.25C52.30 15.34 51.16 15.57 50.29 15.57C49.76 15.57 48.99 15.36 48.99 14.70C48.99 14.25 49.29 13.76 49.67 13.55ZM65.38 10.71C65.38 9.24 64.19 8.19 62.82 7.97C63.97 7.80 64.90 6.90 64.90 5.70C64.90 3.77 63.17 3.30 61.56 3.30L57.92 3.30C57.93 3.37 58.11 4.13 58.11 4.16L58.11 13.55L61.70 13.55C63.50 13.55 65.38 12.81 65.38 10.71ZM62.87 5.96C62.87 6.78 62.27 7.31 61.49 7.31L60.05 7.31L60.05 4.69L61.45 4.69C62.27 4.69 62.87 5.07 62.87 5.96ZM63.35 10.49C63.35 11.55 62.61 12.17 61.57 12.17L60.05 12.17L60.05 8.69L61.14 8.69C62.26 8.69 63.35 9.23 63.35 10.49ZM73.00 13.29L72.70 12.26C72.51 12.32 72.21 12.43 72.00 12.43C71.67 12.43 71.67 11.98 71.67 11.73L71.67 8.69C71.67 7.18 70.81 6.43 69.33 6.43C68.32 6.43 67.34 6.72 66.50 7.29L67.19 8.40C67.68 8.02 68.33 7.59 68.98 7.59C69.68 7.59 69.99 7.83 69.99 8.57L69.99 9.48C68.38 9.48 66.19 9.88 66.19 11.91C66.19 13.06 67.07 13.71 68.17 13.71C69.03 13.71 69.75 13.45 70.27 12.73C70.39 13.27 70.80 13.66 71.37 13.66C71.90 13.66 72.49 13.43 73.00 13.29ZM69.99 10.63L69.99 10.95C69.99 11.63 69.52 12.42 68.75 12.42C68.36 12.42 67.94 12.18 67.94 11.75C67.94 10.70 69.20 10.63 69.99 10.63ZM75.52 4.06C75.52 3.47 75.04 3.00 74.45 3.00C73.86 3.00 73.37 3.47 73.37 4.06C73.37 4.65 73.86 5.14 74.45 5.14C75.04 5.14 75.52 4.65 75.52 4.06ZM73.60 13.55L75.28 13.55L75.28 6.59L73.44 6.59C73.46 6.66 73.60 7.32 73.60 7.35ZM77.08 13.55L78.79 13.55L78.79 2.79L76.93 2.79C76.94 2.86 77.08 3.51 77.08 3.54ZM86.24 9.44C86.24 7.62 85.20 6.40 83.34 6.40C81.24 6.40 80.08 8.16 80.08 10.12C80.08 12.28 81.40 13.71 83.58 13.71C84.35 13.71 85.44 13.48 86.07 12.96L85.36 11.84C84.94 12.26 84.25 12.59 83.66 12.59C82.43 12.59 81.86 11.34 81.86 10.28L85.53 10.28C86.09 10.28 86.24 9.93 86.24 9.44ZM84.49 8.86C84.49 9.04 84.46 9.17 84.25 9.17L81.90 9.17C81.94 8.44 82.57 7.55 83.36 7.55C84.13 7.55 84.49 8.15 84.49 8.86ZM90.57 13.59L93.04 6.59L91.50 6.59C91.06 7.88 90.57 9.16 90.16 10.46C90.06 10.78 90.02 11.17 89.96 11.51C89.89 11.17 89.87 10.78 89.77 10.46C89.35 9.16 88.86 7.88 88.41 6.59L86.60 6.59L89.12 13.54C88.86 14.36 88.44 15.50 87.37 15.50C87.25 15.50 87.12 15.48 87.01 15.46L87.01 16.65L87.53 16.65C89.21 16.65 90.08 14.99 90.57 13.59Z"></path></g><!----><g data-v-423bf9ae="" id="47d7c3cb-0fd9-4eb4-9f97-9c9d7b281356" transform="matrix(1.0004718356662325,0,0,1.0004718356662325,-4.965371929440877,-4.044834128281295)" stroke="none" fill="white"><path d="M39.444 93.602c-.086 0-.176-.011-.264-.033C15.13 87.604.419 63.184 6.386 39.135c2.889-11.65 10.143-21.477 20.424-27.671s22.359-8.015 34.01-5.125c24.049 5.966 38.76 30.385 32.795 54.435-3.92 15.8-16.123 28.274-31.848 32.555a1.094 1.094 0 0 1-1.344-.769 1.098 1.098 0 0 1 .77-1.346c14.957-4.072 26.564-15.938 30.295-30.97 5.676-22.875-8.32-46.104-31.195-51.778-11.08-2.75-22.57-1.019-32.352 4.874-9.779 5.892-16.678 15.24-19.428 26.322-5.676 22.875 8.32 46.104 31.195 51.779a1.097 1.097 0 1 1-.264 2.161zm8.801-.356a1.754 1.754 0 1 0 3.507 0 1.754 1.754 0 0 0-3.507 0zM37.999 58.184a112.887 112.887 0 0 1-.631 3.199 107.418 107.418 0 0 0-.629 3.216 18.864 18.864 0 0 0-.293 3.337c0 1.252.197 2.409.586 3.476a8.118 8.118 0 0 0 1.691 2.786c.738.79 1.648 1.405 2.725 1.846 1.076.44 2.291.661 3.645.661h1.693v-1.292c0-.224-.088-.4-.262-.522-.176-.123-.346-.186-.51-.186H45c-.883 0-1.688-.153-2.416-.461s-1.352-.749-1.875-1.323a6.191 6.191 0 0 1-1.232-2.093c-.299-.821-.447-1.732-.447-2.739 0-1.146.092-2.277.277-3.383.184-1.109.389-2.206.615-3.292.225-1.086.43-2.169.615-3.246.186-1.079.277-2.16.277-3.247 0-.758-.129-1.45-.385-2.076a5.935 5.935 0 0 0-1.016-1.662 5.76 5.76 0 0 0-3.154-1.861 6.33 6.33 0 0 0 1.709-.693 5.982 5.982 0 0 0 1.445-1.185c.42-.471.76-1.024 1.016-1.661a5.56 5.56 0 0 0 .385-2.093c0-1.087-.092-2.168-.277-3.245s-.391-2.156-.615-3.233a75.643 75.643 0 0 1-.615-3.276 20.588 20.588 0 0 1-.277-3.416c0-1.006.148-1.918.447-2.739.297-.818.709-1.517 1.232-2.091a5.263 5.263 0 0 1 1.875-1.324c.729-.308 1.533-.461 2.416-.461h1.014c.164 0 .334-.063.51-.185a.604.604 0 0 0 .262-.523v-1.293h-1.693c-1.354 0-2.568.221-3.645.661-1.076.443-1.986 1.057-2.725 1.849-.738.788-1.303 1.718-1.691 2.784s-.586 2.226-.586 3.476c0 1.149.1 2.261.293 3.337.193 1.08.404 2.151.629 3.218.227 1.066.436 2.133.631 3.198.197 1.068.293 2.166.293 3.292 0 .679-.113 1.3-.338 1.863a4.245 4.245 0 0 1-2.49 2.446 5.5 5.5 0 0 1-1.971.338v1.875c.719 0 1.373.113 1.971.341a4.241 4.241 0 0 1 1.521.969c.42.42.742.911.969 1.475a5 5 0 0 1 .338 1.863c0 1.128-.096 2.226-.293 3.295zm24.076-5.158a4.326 4.326 0 0 1 .971-1.474 4.222 4.222 0 0 1 1.508-.969c.584-.228 1.234-.341 1.951-.341v-1.875c-.717 0-1.367-.112-1.951-.338a4.263 4.263 0 0 1-1.508-.969c-.422-.42-.746-.914-.971-1.477s-.338-1.185-.338-1.864c0-1.126.098-2.223.291-3.292.195-1.064.404-2.131.631-3.198.225-1.066.436-2.138.629-3.217.195-1.077.295-2.188.295-3.338 0-1.25-.195-2.409-.586-3.476a8.021 8.021 0 0 0-1.691-2.784c-.738-.791-1.646-1.404-2.723-1.848-1.078-.44-2.291-.661-3.646-.661h-1.693v1.292c0 .225.084.4.248.523s.338.185.521.185h1.016c.883 0 1.688.153 2.416.461a5.283 5.283 0 0 1 1.875 1.325c.525.573.936 1.272 1.232 2.091.297.821.447 1.732.447 2.739 0 1.17-.092 2.306-.279 3.416a75.93 75.93 0 0 1-.615 3.276 87.476 87.476 0 0 0-.613 3.233 19.224 19.224 0 0 0-.279 3.245c0 .758.125 1.457.373 2.093.244.636.578 1.189.998 1.66.42.473.902.866 1.445 1.185a6.415 6.415 0 0 0 1.709.693 5.778 5.778 0 0 0-3.154 1.86 5.677 5.677 0 0 0-.998 1.662c-.25.626-.373 1.319-.373 2.077a19.4 19.4 0 0 0 .279 3.248c.184 1.076.389 2.158.613 3.245.229 1.086.432 2.184.615 3.293a20.17 20.17 0 0 1 .279 3.382c0 1.007-.15 1.918-.447 2.739-.297.822-.709 1.517-1.232 2.094a5.316 5.316 0 0 1-1.875 1.323c-.729.307-1.533.461-2.416.461h-1.016a.855.855 0 0 0-.521.185.615.615 0 0 0-.248.523v1.292h1.693c1.354 0 2.568-.221 3.646-.661 1.076-.441 1.984-1.058 2.723-1.847a8.075 8.075 0 0 0 1.691-2.786c.391-1.066.586-2.224.586-3.475 0-1.15-.1-2.262-.295-3.338a107.353 107.353 0 0 0-.629-3.215 120.483 120.483 0 0 1-.631-3.2 18.474 18.474 0 0 1-.291-3.292c0-.679.114-1.299.338-1.866z"></path></g><!----></svg>