<?xml version="1.0" standalone="no"?><svg xmlns="http://www.w3.org/2000/svg" viewBox="0 0 1440 320"><path fill="#034873" fill-opacity="1" d="M0,96L40,112C80,128,160,160,240,165.3C320,171,400,149,480,165.3C560,181,640,235,720,224C800,213,880,139,960,128C1040,117,1120,171,1200,165.3C1280,160,1360,96,1400,64L1440,32L1440,320L1400,320C1360,320,1280,320,1200,320C1120,320,1040,320,960,320C880,320,800,320,720,320C640,320,560,320,480,320C400,320,320,320,240,320C160,320,80,320,40,320L0,320Z"></path></svg>